%TF.GenerationSoftware,KiCad,Pcbnew,(5.1.6)-1*%
%TF.CreationDate,2021-09-19T14:55:01-05:00*%
%TF.ProjectId,BptoMega2,4270746f-4d65-4676-9132-2e6b69636164,rev?*%
%TF.SameCoordinates,Original*%
%TF.FileFunction,Legend,Top*%
%TF.FilePolarity,Positive*%
%FSLAX46Y46*%
G04 Gerber Fmt 4.6, Leading zero omitted, Abs format (unit mm)*
G04 Created by KiCad (PCBNEW (5.1.6)-1) date 2021-09-19 14:55:01*
%MOMM*%
%LPD*%
G01*
G04 APERTURE LIST*
%ADD10C,0.150000*%
%ADD11C,0.200000*%
%ADD12C,0.100000*%
%ADD13C,0.120000*%
%ADD14C,0.254000*%
G04 APERTURE END LIST*
D10*
X86384761Y-119831428D02*
X86432380Y-119688571D01*
X86432380Y-119450476D01*
X86384761Y-119355238D01*
X86337142Y-119307619D01*
X86241904Y-119260000D01*
X86146666Y-119260000D01*
X86051428Y-119307619D01*
X86003809Y-119355238D01*
X85956190Y-119450476D01*
X85908571Y-119640952D01*
X85860952Y-119736190D01*
X85813333Y-119783809D01*
X85718095Y-119831428D01*
X85622857Y-119831428D01*
X85527619Y-119783809D01*
X85480000Y-119736190D01*
X85432380Y-119640952D01*
X85432380Y-119402857D01*
X85480000Y-119260000D01*
X86432380Y-118402857D02*
X85908571Y-118402857D01*
X85813333Y-118450476D01*
X85765714Y-118545714D01*
X85765714Y-118736190D01*
X85813333Y-118831428D01*
X86384761Y-118402857D02*
X86432380Y-118498095D01*
X86432380Y-118736190D01*
X86384761Y-118831428D01*
X86289523Y-118879047D01*
X86194285Y-118879047D01*
X86099047Y-118831428D01*
X86051428Y-118736190D01*
X86051428Y-118498095D01*
X86003809Y-118402857D01*
X85765714Y-118021904D02*
X86432380Y-117831428D01*
X85956190Y-117640952D01*
X86432380Y-117450476D01*
X85765714Y-117260000D01*
X86432380Y-116879047D02*
X85432380Y-116879047D01*
X85813333Y-116879047D02*
X85765714Y-116783809D01*
X85765714Y-116593333D01*
X85813333Y-116498095D01*
X85860952Y-116450476D01*
X85956190Y-116402857D01*
X86241904Y-116402857D01*
X86337142Y-116450476D01*
X86384761Y-116498095D01*
X86432380Y-116593333D01*
X86432380Y-116783809D01*
X86384761Y-116879047D01*
X86432380Y-115831428D02*
X86384761Y-115926666D01*
X86337142Y-115974285D01*
X86241904Y-116021904D01*
X85956190Y-116021904D01*
X85860952Y-115974285D01*
X85813333Y-115926666D01*
X85765714Y-115831428D01*
X85765714Y-115688571D01*
X85813333Y-115593333D01*
X85860952Y-115545714D01*
X85956190Y-115498095D01*
X86241904Y-115498095D01*
X86337142Y-115545714D01*
X86384761Y-115593333D01*
X86432380Y-115688571D01*
X86432380Y-115831428D01*
X86384761Y-115117142D02*
X86432380Y-115021904D01*
X86432380Y-114831428D01*
X86384761Y-114736190D01*
X86289523Y-114688571D01*
X86241904Y-114688571D01*
X86146666Y-114736190D01*
X86099047Y-114831428D01*
X86099047Y-114974285D01*
X86051428Y-115069523D01*
X85956190Y-115117142D01*
X85908571Y-115117142D01*
X85813333Y-115069523D01*
X85765714Y-114974285D01*
X85765714Y-114831428D01*
X85813333Y-114736190D01*
X86384761Y-114307619D02*
X86432380Y-114212380D01*
X86432380Y-114021904D01*
X86384761Y-113926666D01*
X86289523Y-113879047D01*
X86241904Y-113879047D01*
X86146666Y-113926666D01*
X86099047Y-114021904D01*
X86099047Y-114164761D01*
X86051428Y-114260000D01*
X85956190Y-114307619D01*
X85908571Y-114307619D01*
X85813333Y-114260000D01*
X85765714Y-114164761D01*
X85765714Y-114021904D01*
X85813333Y-113926666D01*
X86432380Y-112688571D02*
X85432380Y-112688571D01*
X85432380Y-112307619D01*
X85480000Y-112212380D01*
X85527619Y-112164761D01*
X85622857Y-112117142D01*
X85765714Y-112117142D01*
X85860952Y-112164761D01*
X85908571Y-112212380D01*
X85956190Y-112307619D01*
X85956190Y-112688571D01*
X86384761Y-111307619D02*
X86432380Y-111402857D01*
X86432380Y-111593333D01*
X86384761Y-111688571D01*
X86289523Y-111736190D01*
X85908571Y-111736190D01*
X85813333Y-111688571D01*
X85765714Y-111593333D01*
X85765714Y-111402857D01*
X85813333Y-111307619D01*
X85908571Y-111260000D01*
X86003809Y-111260000D01*
X86099047Y-111736190D01*
X86432380Y-110831428D02*
X85765714Y-110831428D01*
X85956190Y-110831428D02*
X85860952Y-110783809D01*
X85813333Y-110736190D01*
X85765714Y-110640952D01*
X85765714Y-110545714D01*
X85765714Y-110355238D02*
X85765714Y-109974285D01*
X86432380Y-110212380D02*
X85575238Y-110212380D01*
X85480000Y-110164761D01*
X85432380Y-110069523D01*
X85432380Y-109974285D01*
X86432380Y-109498095D02*
X86384761Y-109593333D01*
X86337142Y-109640952D01*
X86241904Y-109688571D01*
X85956190Y-109688571D01*
X85860952Y-109640952D01*
X85813333Y-109593333D01*
X85765714Y-109498095D01*
X85765714Y-109355238D01*
X85813333Y-109260000D01*
X85860952Y-109212380D01*
X85956190Y-109164761D01*
X86241904Y-109164761D01*
X86337142Y-109212380D01*
X86384761Y-109260000D01*
X86432380Y-109355238D01*
X86432380Y-109498095D01*
X86432380Y-108736190D02*
X85765714Y-108736190D01*
X85956190Y-108736190D02*
X85860952Y-108688571D01*
X85813333Y-108640952D01*
X85765714Y-108545714D01*
X85765714Y-108450476D01*
X86432380Y-108117142D02*
X85765714Y-108117142D01*
X85860952Y-108117142D02*
X85813333Y-108069523D01*
X85765714Y-107974285D01*
X85765714Y-107831428D01*
X85813333Y-107736190D01*
X85908571Y-107688571D01*
X86432380Y-107688571D01*
X85908571Y-107688571D02*
X85813333Y-107640952D01*
X85765714Y-107545714D01*
X85765714Y-107402857D01*
X85813333Y-107307619D01*
X85908571Y-107260000D01*
X86432380Y-107260000D01*
X86432380Y-106355238D02*
X85908571Y-106355238D01*
X85813333Y-106402857D01*
X85765714Y-106498095D01*
X85765714Y-106688571D01*
X85813333Y-106783809D01*
X86384761Y-106355238D02*
X86432380Y-106450476D01*
X86432380Y-106688571D01*
X86384761Y-106783809D01*
X86289523Y-106831428D01*
X86194285Y-106831428D01*
X86099047Y-106783809D01*
X86051428Y-106688571D01*
X86051428Y-106450476D01*
X86003809Y-106355238D01*
X85765714Y-105879047D02*
X86432380Y-105879047D01*
X85860952Y-105879047D02*
X85813333Y-105831428D01*
X85765714Y-105736190D01*
X85765714Y-105593333D01*
X85813333Y-105498095D01*
X85908571Y-105450476D01*
X86432380Y-105450476D01*
X86384761Y-104545714D02*
X86432380Y-104640952D01*
X86432380Y-104831428D01*
X86384761Y-104926666D01*
X86337142Y-104974285D01*
X86241904Y-105021904D01*
X85956190Y-105021904D01*
X85860952Y-104974285D01*
X85813333Y-104926666D01*
X85765714Y-104831428D01*
X85765714Y-104640952D01*
X85813333Y-104545714D01*
X86384761Y-103736190D02*
X86432380Y-103831428D01*
X86432380Y-104021904D01*
X86384761Y-104117142D01*
X86289523Y-104164761D01*
X85908571Y-104164761D01*
X85813333Y-104117142D01*
X85765714Y-104021904D01*
X85765714Y-103831428D01*
X85813333Y-103736190D01*
X85908571Y-103688571D01*
X86003809Y-103688571D01*
X86099047Y-104164761D01*
X87558571Y-117402857D02*
X87606190Y-117260000D01*
X87653809Y-117212380D01*
X87749047Y-117164761D01*
X87891904Y-117164761D01*
X87987142Y-117212380D01*
X88034761Y-117260000D01*
X88082380Y-117355238D01*
X88082380Y-117736190D01*
X87082380Y-117736190D01*
X87082380Y-117402857D01*
X87130000Y-117307619D01*
X87177619Y-117260000D01*
X87272857Y-117212380D01*
X87368095Y-117212380D01*
X87463333Y-117260000D01*
X87510952Y-117307619D01*
X87558571Y-117402857D01*
X87558571Y-117736190D01*
X88082380Y-116736190D02*
X87415714Y-116736190D01*
X87606190Y-116736190D02*
X87510952Y-116688571D01*
X87463333Y-116640952D01*
X87415714Y-116545714D01*
X87415714Y-116450476D01*
X88034761Y-115736190D02*
X88082380Y-115831428D01*
X88082380Y-116021904D01*
X88034761Y-116117142D01*
X87939523Y-116164761D01*
X87558571Y-116164761D01*
X87463333Y-116117142D01*
X87415714Y-116021904D01*
X87415714Y-115831428D01*
X87463333Y-115736190D01*
X87558571Y-115688571D01*
X87653809Y-115688571D01*
X87749047Y-116164761D01*
X88082380Y-114831428D02*
X87558571Y-114831428D01*
X87463333Y-114879047D01*
X87415714Y-114974285D01*
X87415714Y-115164761D01*
X87463333Y-115260000D01*
X88034761Y-114831428D02*
X88082380Y-114926666D01*
X88082380Y-115164761D01*
X88034761Y-115260000D01*
X87939523Y-115307619D01*
X87844285Y-115307619D01*
X87749047Y-115260000D01*
X87701428Y-115164761D01*
X87701428Y-114926666D01*
X87653809Y-114831428D01*
X88082380Y-114355238D02*
X87082380Y-114355238D01*
X87701428Y-114260000D02*
X88082380Y-113974285D01*
X87415714Y-113974285D02*
X87796666Y-114355238D01*
X88082380Y-113402857D02*
X88034761Y-113498095D01*
X87987142Y-113545714D01*
X87891904Y-113593333D01*
X87606190Y-113593333D01*
X87510952Y-113545714D01*
X87463333Y-113498095D01*
X87415714Y-113402857D01*
X87415714Y-113260000D01*
X87463333Y-113164761D01*
X87510952Y-113117142D01*
X87606190Y-113069523D01*
X87891904Y-113069523D01*
X87987142Y-113117142D01*
X88034761Y-113164761D01*
X88082380Y-113260000D01*
X88082380Y-113402857D01*
X87415714Y-112212380D02*
X88082380Y-112212380D01*
X87415714Y-112640952D02*
X87939523Y-112640952D01*
X88034761Y-112593333D01*
X88082380Y-112498095D01*
X88082380Y-112355238D01*
X88034761Y-112260000D01*
X87987142Y-112212380D01*
X87415714Y-111879047D02*
X87415714Y-111498095D01*
X87082380Y-111736190D02*
X87939523Y-111736190D01*
X88034761Y-111688571D01*
X88082380Y-111593333D01*
X88082380Y-111498095D01*
X87558571Y-110069523D02*
X87606190Y-109926666D01*
X87653809Y-109879047D01*
X87749047Y-109831428D01*
X87891904Y-109831428D01*
X87987142Y-109879047D01*
X88034761Y-109926666D01*
X88082380Y-110021904D01*
X88082380Y-110402857D01*
X87082380Y-110402857D01*
X87082380Y-110069523D01*
X87130000Y-109974285D01*
X87177619Y-109926666D01*
X87272857Y-109879047D01*
X87368095Y-109879047D01*
X87463333Y-109926666D01*
X87510952Y-109974285D01*
X87558571Y-110069523D01*
X87558571Y-110402857D01*
X88082380Y-109260000D02*
X88034761Y-109355238D01*
X87987142Y-109402857D01*
X87891904Y-109450476D01*
X87606190Y-109450476D01*
X87510952Y-109402857D01*
X87463333Y-109355238D01*
X87415714Y-109260000D01*
X87415714Y-109117142D01*
X87463333Y-109021904D01*
X87510952Y-108974285D01*
X87606190Y-108926666D01*
X87891904Y-108926666D01*
X87987142Y-108974285D01*
X88034761Y-109021904D01*
X88082380Y-109117142D01*
X88082380Y-109260000D01*
X88082380Y-108069523D02*
X87558571Y-108069523D01*
X87463333Y-108117142D01*
X87415714Y-108212380D01*
X87415714Y-108402857D01*
X87463333Y-108498095D01*
X88034761Y-108069523D02*
X88082380Y-108164761D01*
X88082380Y-108402857D01*
X88034761Y-108498095D01*
X87939523Y-108545714D01*
X87844285Y-108545714D01*
X87749047Y-108498095D01*
X87701428Y-108402857D01*
X87701428Y-108164761D01*
X87653809Y-108069523D01*
X88082380Y-107593333D02*
X87415714Y-107593333D01*
X87606190Y-107593333D02*
X87510952Y-107545714D01*
X87463333Y-107498095D01*
X87415714Y-107402857D01*
X87415714Y-107307619D01*
X88082380Y-106545714D02*
X87082380Y-106545714D01*
X88034761Y-106545714D02*
X88082380Y-106640952D01*
X88082380Y-106831428D01*
X88034761Y-106926666D01*
X87987142Y-106974285D01*
X87891904Y-107021904D01*
X87606190Y-107021904D01*
X87510952Y-106974285D01*
X87463333Y-106926666D01*
X87415714Y-106831428D01*
X87415714Y-106640952D01*
X87463333Y-106545714D01*
X89065714Y-115855238D02*
X89732380Y-115617142D01*
X89065714Y-115379047D01*
X89684761Y-114617142D02*
X89732380Y-114712380D01*
X89732380Y-114902857D01*
X89684761Y-114998095D01*
X89589523Y-115045714D01*
X89208571Y-115045714D01*
X89113333Y-114998095D01*
X89065714Y-114902857D01*
X89065714Y-114712380D01*
X89113333Y-114617142D01*
X89208571Y-114569523D01*
X89303809Y-114569523D01*
X89399047Y-115045714D01*
X89732380Y-114140952D02*
X89065714Y-114140952D01*
X89256190Y-114140952D02*
X89160952Y-114093333D01*
X89113333Y-114045714D01*
X89065714Y-113950476D01*
X89065714Y-113855238D01*
X89684761Y-113569523D02*
X89732380Y-113474285D01*
X89732380Y-113283809D01*
X89684761Y-113188571D01*
X89589523Y-113140952D01*
X89541904Y-113140952D01*
X89446666Y-113188571D01*
X89399047Y-113283809D01*
X89399047Y-113426666D01*
X89351428Y-113521904D01*
X89256190Y-113569523D01*
X89208571Y-113569523D01*
X89113333Y-113521904D01*
X89065714Y-113426666D01*
X89065714Y-113283809D01*
X89113333Y-113188571D01*
X89732380Y-112712380D02*
X89065714Y-112712380D01*
X88732380Y-112712380D02*
X88780000Y-112760000D01*
X88827619Y-112712380D01*
X88780000Y-112664761D01*
X88732380Y-112712380D01*
X88827619Y-112712380D01*
X89732380Y-112093333D02*
X89684761Y-112188571D01*
X89637142Y-112236190D01*
X89541904Y-112283809D01*
X89256190Y-112283809D01*
X89160952Y-112236190D01*
X89113333Y-112188571D01*
X89065714Y-112093333D01*
X89065714Y-111950476D01*
X89113333Y-111855238D01*
X89160952Y-111807619D01*
X89256190Y-111760000D01*
X89541904Y-111760000D01*
X89637142Y-111807619D01*
X89684761Y-111855238D01*
X89732380Y-111950476D01*
X89732380Y-112093333D01*
X89065714Y-111331428D02*
X89732380Y-111331428D01*
X89160952Y-111331428D02*
X89113333Y-111283809D01*
X89065714Y-111188571D01*
X89065714Y-111045714D01*
X89113333Y-110950476D01*
X89208571Y-110902857D01*
X89732380Y-110902857D01*
X89732380Y-109140952D02*
X89732380Y-109712380D01*
X89732380Y-109426666D02*
X88732380Y-109426666D01*
X88875238Y-109521904D01*
X88970476Y-109617142D01*
X89018095Y-109712380D01*
X89637142Y-108712380D02*
X89684761Y-108664761D01*
X89732380Y-108712380D01*
X89684761Y-108760000D01*
X89637142Y-108712380D01*
X89732380Y-108712380D01*
X88732380Y-108045714D02*
X88732380Y-107950476D01*
X88780000Y-107855238D01*
X88827619Y-107807619D01*
X88922857Y-107760000D01*
X89113333Y-107712380D01*
X89351428Y-107712380D01*
X89541904Y-107760000D01*
X89637142Y-107807619D01*
X89684761Y-107855238D01*
X89732380Y-107950476D01*
X89732380Y-108045714D01*
X89684761Y-108140952D01*
X89637142Y-108188571D01*
X89541904Y-108236190D01*
X89351428Y-108283809D01*
X89113333Y-108283809D01*
X88922857Y-108236190D01*
X88827619Y-108188571D01*
X88780000Y-108140952D01*
X88732380Y-108045714D01*
X66492380Y-152614285D02*
X66492380Y-153185714D01*
X66492380Y-152900000D02*
X65492380Y-152900000D01*
X65635238Y-152995238D01*
X65730476Y-153090476D01*
X65778095Y-153185714D01*
X65968571Y-151852380D02*
X66016190Y-151709523D01*
X66063809Y-151661904D01*
X66159047Y-151614285D01*
X66301904Y-151614285D01*
X66397142Y-151661904D01*
X66444761Y-151709523D01*
X66492380Y-151804761D01*
X66492380Y-152185714D01*
X65492380Y-152185714D01*
X65492380Y-151852380D01*
X65540000Y-151757142D01*
X65587619Y-151709523D01*
X65682857Y-151661904D01*
X65778095Y-151661904D01*
X65873333Y-151709523D01*
X65920952Y-151757142D01*
X65968571Y-151852380D01*
X65968571Y-152185714D01*
X71572380Y-152542857D02*
X71572380Y-153114285D01*
X71572380Y-152828571D02*
X70572380Y-152828571D01*
X70715238Y-152923809D01*
X70810476Y-153019047D01*
X70858095Y-153114285D01*
X71286666Y-152161904D02*
X71286666Y-151685714D01*
X71572380Y-152257142D02*
X70572380Y-151923809D01*
X71572380Y-151590476D01*
X65587619Y-115085714D02*
X65540000Y-115038095D01*
X65492380Y-114942857D01*
X65492380Y-114704761D01*
X65540000Y-114609523D01*
X65587619Y-114561904D01*
X65682857Y-114514285D01*
X65778095Y-114514285D01*
X65920952Y-114561904D01*
X66492380Y-115133333D01*
X66492380Y-114514285D01*
X65968571Y-113752380D02*
X66016190Y-113609523D01*
X66063809Y-113561904D01*
X66159047Y-113514285D01*
X66301904Y-113514285D01*
X66397142Y-113561904D01*
X66444761Y-113609523D01*
X66492380Y-113704761D01*
X66492380Y-114085714D01*
X65492380Y-114085714D01*
X65492380Y-113752380D01*
X65540000Y-113657142D01*
X65587619Y-113609523D01*
X65682857Y-113561904D01*
X65778095Y-113561904D01*
X65873333Y-113609523D01*
X65920952Y-113657142D01*
X65968571Y-113752380D01*
X65968571Y-114085714D01*
X70667619Y-115014285D02*
X70620000Y-114966666D01*
X70572380Y-114871428D01*
X70572380Y-114633333D01*
X70620000Y-114538095D01*
X70667619Y-114490476D01*
X70762857Y-114442857D01*
X70858095Y-114442857D01*
X71000952Y-114490476D01*
X71572380Y-115061904D01*
X71572380Y-114442857D01*
X71286666Y-114061904D02*
X71286666Y-113585714D01*
X71572380Y-114157142D02*
X70572380Y-113823809D01*
X71572380Y-113490476D01*
D11*
%TO.C,J1*%
X71020000Y-73630000D02*
X71020000Y-73630000D01*
X71220000Y-73630000D02*
X71220000Y-73630000D01*
D12*
X57720000Y-157780000D02*
X64120000Y-157780000D01*
X57720000Y-153230000D02*
X57720000Y-157780000D01*
X45620000Y-153230000D02*
X57720000Y-153230000D01*
X45620000Y-71230000D02*
X45620000Y-153230000D01*
X46120000Y-71230000D02*
X45620000Y-71230000D01*
X57720000Y-71230000D02*
X46120000Y-71230000D01*
X57720000Y-66680000D02*
X57720000Y-71230000D01*
X64120000Y-66680000D02*
X57720000Y-66680000D01*
X64120000Y-157780000D02*
X64120000Y-66680000D01*
D11*
X71020000Y-73630000D02*
G75*
G02*
X71220000Y-73630000I100000J0D01*
G01*
X71220000Y-73630000D02*
G75*
G02*
X71020000Y-73630000I-100000J0D01*
G01*
D13*
%TO.C,J2*%
X83820000Y-67310000D02*
X85090000Y-67310000D01*
X83820000Y-68580000D02*
X83820000Y-67310000D01*
X86132929Y-89280000D02*
X86530000Y-89280000D01*
X86132929Y-88520000D02*
X86530000Y-88520000D01*
X95190000Y-89280000D02*
X89190000Y-89280000D01*
X95190000Y-88520000D02*
X95190000Y-89280000D01*
X89190000Y-88520000D02*
X95190000Y-88520000D01*
X86530000Y-87630000D02*
X89190000Y-87630000D01*
X86132929Y-86740000D02*
X86530000Y-86740000D01*
X86132929Y-85980000D02*
X86530000Y-85980000D01*
X95190000Y-86740000D02*
X89190000Y-86740000D01*
X95190000Y-85980000D02*
X95190000Y-86740000D01*
X89190000Y-85980000D02*
X95190000Y-85980000D01*
X86530000Y-85090000D02*
X89190000Y-85090000D01*
X86132929Y-84200000D02*
X86530000Y-84200000D01*
X86132929Y-83440000D02*
X86530000Y-83440000D01*
X95190000Y-84200000D02*
X89190000Y-84200000D01*
X95190000Y-83440000D02*
X95190000Y-84200000D01*
X89190000Y-83440000D02*
X95190000Y-83440000D01*
X86530000Y-82550000D02*
X89190000Y-82550000D01*
X86132929Y-81660000D02*
X86530000Y-81660000D01*
X86132929Y-80900000D02*
X86530000Y-80900000D01*
X95190000Y-81660000D02*
X89190000Y-81660000D01*
X95190000Y-80900000D02*
X95190000Y-81660000D01*
X89190000Y-80900000D02*
X95190000Y-80900000D01*
X86530000Y-80010000D02*
X89190000Y-80010000D01*
X86132929Y-79120000D02*
X86530000Y-79120000D01*
X86132929Y-78360000D02*
X86530000Y-78360000D01*
X95190000Y-79120000D02*
X89190000Y-79120000D01*
X95190000Y-78360000D02*
X95190000Y-79120000D01*
X89190000Y-78360000D02*
X95190000Y-78360000D01*
X86530000Y-77470000D02*
X89190000Y-77470000D01*
X86132929Y-76580000D02*
X86530000Y-76580000D01*
X86132929Y-75820000D02*
X86530000Y-75820000D01*
X95190000Y-76580000D02*
X89190000Y-76580000D01*
X95190000Y-75820000D02*
X95190000Y-76580000D01*
X89190000Y-75820000D02*
X95190000Y-75820000D01*
X86530000Y-74930000D02*
X89190000Y-74930000D01*
X86132929Y-74040000D02*
X86530000Y-74040000D01*
X86132929Y-73280000D02*
X86530000Y-73280000D01*
X95190000Y-74040000D02*
X89190000Y-74040000D01*
X95190000Y-73280000D02*
X95190000Y-74040000D01*
X89190000Y-73280000D02*
X95190000Y-73280000D01*
X86530000Y-72390000D02*
X89190000Y-72390000D01*
X86132929Y-71500000D02*
X86530000Y-71500000D01*
X86132929Y-70740000D02*
X86530000Y-70740000D01*
X95190000Y-71500000D02*
X89190000Y-71500000D01*
X95190000Y-70740000D02*
X95190000Y-71500000D01*
X89190000Y-70740000D02*
X95190000Y-70740000D01*
X86530000Y-69850000D02*
X89190000Y-69850000D01*
X86200000Y-68960000D02*
X86530000Y-68960000D01*
X86200000Y-68200000D02*
X86530000Y-68200000D01*
X89190000Y-68860000D02*
X95190000Y-68860000D01*
X89190000Y-68740000D02*
X95190000Y-68740000D01*
X89190000Y-68620000D02*
X95190000Y-68620000D01*
X89190000Y-68500000D02*
X95190000Y-68500000D01*
X89190000Y-68380000D02*
X95190000Y-68380000D01*
X89190000Y-68260000D02*
X95190000Y-68260000D01*
X95190000Y-68960000D02*
X89190000Y-68960000D01*
X95190000Y-68200000D02*
X95190000Y-68960000D01*
X89190000Y-68200000D02*
X95190000Y-68200000D01*
X89190000Y-67250000D02*
X86530000Y-67250000D01*
X89190000Y-90230000D02*
X89190000Y-67250000D01*
X86530000Y-90230000D02*
X89190000Y-90230000D01*
X86530000Y-67250000D02*
X86530000Y-90230000D01*
%TO.C,J3*%
X83820000Y-130810000D02*
X85090000Y-130810000D01*
X83820000Y-132080000D02*
X83820000Y-130810000D01*
X86132929Y-155320000D02*
X86530000Y-155320000D01*
X86132929Y-154560000D02*
X86530000Y-154560000D01*
X95190000Y-155320000D02*
X89190000Y-155320000D01*
X95190000Y-154560000D02*
X95190000Y-155320000D01*
X89190000Y-154560000D02*
X95190000Y-154560000D01*
X86530000Y-153670000D02*
X89190000Y-153670000D01*
X86132929Y-152780000D02*
X86530000Y-152780000D01*
X86132929Y-152020000D02*
X86530000Y-152020000D01*
X95190000Y-152780000D02*
X89190000Y-152780000D01*
X95190000Y-152020000D02*
X95190000Y-152780000D01*
X89190000Y-152020000D02*
X95190000Y-152020000D01*
X86530000Y-151130000D02*
X89190000Y-151130000D01*
X86132929Y-150240000D02*
X86530000Y-150240000D01*
X86132929Y-149480000D02*
X86530000Y-149480000D01*
X95190000Y-150240000D02*
X89190000Y-150240000D01*
X95190000Y-149480000D02*
X95190000Y-150240000D01*
X89190000Y-149480000D02*
X95190000Y-149480000D01*
X86530000Y-148590000D02*
X89190000Y-148590000D01*
X86132929Y-147700000D02*
X86530000Y-147700000D01*
X86132929Y-146940000D02*
X86530000Y-146940000D01*
X95190000Y-147700000D02*
X89190000Y-147700000D01*
X95190000Y-146940000D02*
X95190000Y-147700000D01*
X89190000Y-146940000D02*
X95190000Y-146940000D01*
X86530000Y-146050000D02*
X89190000Y-146050000D01*
X86132929Y-145160000D02*
X86530000Y-145160000D01*
X86132929Y-144400000D02*
X86530000Y-144400000D01*
X95190000Y-145160000D02*
X89190000Y-145160000D01*
X95190000Y-144400000D02*
X95190000Y-145160000D01*
X89190000Y-144400000D02*
X95190000Y-144400000D01*
X86530000Y-143510000D02*
X89190000Y-143510000D01*
X86132929Y-142620000D02*
X86530000Y-142620000D01*
X86132929Y-141860000D02*
X86530000Y-141860000D01*
X95190000Y-142620000D02*
X89190000Y-142620000D01*
X95190000Y-141860000D02*
X95190000Y-142620000D01*
X89190000Y-141860000D02*
X95190000Y-141860000D01*
X86530000Y-140970000D02*
X89190000Y-140970000D01*
X86132929Y-140080000D02*
X86530000Y-140080000D01*
X86132929Y-139320000D02*
X86530000Y-139320000D01*
X95190000Y-140080000D02*
X89190000Y-140080000D01*
X95190000Y-139320000D02*
X95190000Y-140080000D01*
X89190000Y-139320000D02*
X95190000Y-139320000D01*
X86530000Y-138430000D02*
X89190000Y-138430000D01*
X86132929Y-137540000D02*
X86530000Y-137540000D01*
X86132929Y-136780000D02*
X86530000Y-136780000D01*
X95190000Y-137540000D02*
X89190000Y-137540000D01*
X95190000Y-136780000D02*
X95190000Y-137540000D01*
X89190000Y-136780000D02*
X95190000Y-136780000D01*
X86530000Y-135890000D02*
X89190000Y-135890000D01*
X86132929Y-135000000D02*
X86530000Y-135000000D01*
X86132929Y-134240000D02*
X86530000Y-134240000D01*
X95190000Y-135000000D02*
X89190000Y-135000000D01*
X95190000Y-134240000D02*
X95190000Y-135000000D01*
X89190000Y-134240000D02*
X95190000Y-134240000D01*
X86530000Y-133350000D02*
X89190000Y-133350000D01*
X86200000Y-132460000D02*
X86530000Y-132460000D01*
X86200000Y-131700000D02*
X86530000Y-131700000D01*
X89190000Y-132360000D02*
X95190000Y-132360000D01*
X89190000Y-132240000D02*
X95190000Y-132240000D01*
X89190000Y-132120000D02*
X95190000Y-132120000D01*
X89190000Y-132000000D02*
X95190000Y-132000000D01*
X89190000Y-131880000D02*
X95190000Y-131880000D01*
X89190000Y-131760000D02*
X95190000Y-131760000D01*
X95190000Y-132460000D02*
X89190000Y-132460000D01*
X95190000Y-131700000D02*
X95190000Y-132460000D01*
X89190000Y-131700000D02*
X95190000Y-131700000D01*
X89190000Y-130750000D02*
X86530000Y-130750000D01*
X89190000Y-156270000D02*
X89190000Y-130750000D01*
X86530000Y-156270000D02*
X89190000Y-156270000D01*
X86530000Y-130750000D02*
X86530000Y-156270000D01*
%TO.C,J1*%
D14*
X57724523Y-109643333D02*
X58631666Y-109643333D01*
X58813095Y-109703809D01*
X58934047Y-109824761D01*
X58994523Y-110006190D01*
X58994523Y-110127142D01*
X58994523Y-108373333D02*
X58994523Y-109099047D01*
X58994523Y-108736190D02*
X57724523Y-108736190D01*
X57905952Y-108857142D01*
X58026904Y-108978095D01*
X58087380Y-109099047D01*
X60264523Y-91681904D02*
X60264523Y-92407619D01*
X60264523Y-92044761D02*
X58994523Y-92044761D01*
X59175952Y-92165714D01*
X59296904Y-92286666D01*
X59357380Y-92407619D01*
X58994523Y-91258571D02*
X58994523Y-90411904D01*
X60264523Y-90956190D01*
X59417857Y-89383809D02*
X60264523Y-89383809D01*
X58934047Y-89686190D02*
X59841190Y-89988571D01*
X59841190Y-89202380D01*
X60264523Y-88658095D02*
X60264523Y-88416190D01*
X60204047Y-88295238D01*
X60143571Y-88234761D01*
X59962142Y-88113809D01*
X59720238Y-88053333D01*
X59236428Y-88053333D01*
X59115476Y-88113809D01*
X59055000Y-88174285D01*
X58994523Y-88295238D01*
X58994523Y-88537142D01*
X59055000Y-88658095D01*
X59115476Y-88718571D01*
X59236428Y-88779047D01*
X59538809Y-88779047D01*
X59659761Y-88718571D01*
X59720238Y-88658095D01*
X59780714Y-88537142D01*
X59780714Y-88295238D01*
X59720238Y-88174285D01*
X59659761Y-88113809D01*
X59538809Y-88053333D01*
X60264523Y-86843809D02*
X60264523Y-87569523D01*
X60264523Y-87206666D02*
X58994523Y-87206666D01*
X59175952Y-87327619D01*
X59296904Y-87448571D01*
X59357380Y-87569523D01*
X58994523Y-86420476D02*
X58994523Y-85573809D01*
X60264523Y-86118095D01*
X59780714Y-85090000D02*
X59780714Y-84122380D01*
X58994523Y-82973333D02*
X58994523Y-83215238D01*
X59055000Y-83336190D01*
X59115476Y-83396666D01*
X59296904Y-83517619D01*
X59538809Y-83578095D01*
X60022619Y-83578095D01*
X60143571Y-83517619D01*
X60204047Y-83457142D01*
X60264523Y-83336190D01*
X60264523Y-83094285D01*
X60204047Y-82973333D01*
X60143571Y-82912857D01*
X60022619Y-82852380D01*
X59720238Y-82852380D01*
X59599285Y-82912857D01*
X59538809Y-82973333D01*
X59478333Y-83094285D01*
X59478333Y-83336190D01*
X59538809Y-83457142D01*
X59599285Y-83517619D01*
X59720238Y-83578095D01*
%TO.C,J2*%
D10*
X88352380Y-66373333D02*
X89066666Y-66373333D01*
X89209523Y-66420952D01*
X89304761Y-66516190D01*
X89352380Y-66659047D01*
X89352380Y-66754285D01*
X88447619Y-65944761D02*
X88400000Y-65897142D01*
X88352380Y-65801904D01*
X88352380Y-65563809D01*
X88400000Y-65468571D01*
X88447619Y-65420952D01*
X88542857Y-65373333D01*
X88638095Y-65373333D01*
X88780952Y-65420952D01*
X89352380Y-65992380D01*
X89352380Y-65373333D01*
X78367142Y-89257142D02*
X78319523Y-89304761D01*
X78176666Y-89352380D01*
X78081428Y-89352380D01*
X77938571Y-89304761D01*
X77843333Y-89209523D01*
X77795714Y-89114285D01*
X77748095Y-88923809D01*
X77748095Y-88780952D01*
X77795714Y-88590476D01*
X77843333Y-88495238D01*
X77938571Y-88400000D01*
X78081428Y-88352380D01*
X78176666Y-88352380D01*
X78319523Y-88400000D01*
X78367142Y-88447619D01*
X79367142Y-89352380D02*
X79033809Y-88876190D01*
X78795714Y-89352380D02*
X78795714Y-88352380D01*
X79176666Y-88352380D01*
X79271904Y-88400000D01*
X79319523Y-88447619D01*
X79367142Y-88542857D01*
X79367142Y-88685714D01*
X79319523Y-88780952D01*
X79271904Y-88828571D01*
X79176666Y-88876190D01*
X78795714Y-88876190D01*
X79748095Y-89066666D02*
X80224285Y-89066666D01*
X79652857Y-89352380D02*
X79986190Y-88352380D01*
X80319523Y-89352380D01*
X80652857Y-89352380D02*
X80652857Y-88352380D01*
X81224285Y-89352380D01*
X81224285Y-88352380D01*
X81700476Y-89352380D02*
X81700476Y-88352380D01*
X82271904Y-89352380D02*
X81843333Y-88780952D01*
X82271904Y-88352380D02*
X81700476Y-88923809D01*
X80589523Y-86717142D02*
X80541904Y-86764761D01*
X80399047Y-86812380D01*
X80303809Y-86812380D01*
X80160952Y-86764761D01*
X80065714Y-86669523D01*
X80018095Y-86574285D01*
X79970476Y-86383809D01*
X79970476Y-86240952D01*
X80018095Y-86050476D01*
X80065714Y-85955238D01*
X80160952Y-85860000D01*
X80303809Y-85812380D01*
X80399047Y-85812380D01*
X80541904Y-85860000D01*
X80589523Y-85907619D01*
X80970476Y-86526666D02*
X81446666Y-86526666D01*
X80875238Y-86812380D02*
X81208571Y-85812380D01*
X81541904Y-86812380D01*
X81875238Y-86812380D02*
X81875238Y-85812380D01*
X82208571Y-86526666D01*
X82541904Y-85812380D01*
X82541904Y-86812380D01*
X77605238Y-83272380D02*
X78176666Y-83272380D01*
X77890952Y-84272380D02*
X77890952Y-83272380D01*
X78510000Y-84272380D02*
X78510000Y-83272380D01*
X78890952Y-83272380D01*
X78986190Y-83320000D01*
X79033809Y-83367619D01*
X79081428Y-83462857D01*
X79081428Y-83605714D01*
X79033809Y-83700952D01*
X78986190Y-83748571D01*
X78890952Y-83796190D01*
X78510000Y-83796190D01*
X79462380Y-84224761D02*
X79605238Y-84272380D01*
X79843333Y-84272380D01*
X79938571Y-84224761D01*
X79986190Y-84177142D01*
X80033809Y-84081904D01*
X80033809Y-83986666D01*
X79986190Y-83891428D01*
X79938571Y-83843809D01*
X79843333Y-83796190D01*
X79652857Y-83748571D01*
X79557619Y-83700952D01*
X79510000Y-83653333D01*
X79462380Y-83558095D01*
X79462380Y-83462857D01*
X79510000Y-83367619D01*
X79557619Y-83320000D01*
X79652857Y-83272380D01*
X79890952Y-83272380D01*
X80033809Y-83320000D01*
X80224285Y-84367619D02*
X80986190Y-84367619D01*
X81224285Y-84272380D02*
X81224285Y-83272380D01*
X81700476Y-84272380D02*
X81700476Y-83272380D01*
X82271904Y-84272380D01*
X82271904Y-83272380D01*
X80708571Y-73112380D02*
X80899047Y-73112380D01*
X80994285Y-73160000D01*
X81089523Y-73255238D01*
X81137142Y-73445714D01*
X81137142Y-73779047D01*
X81089523Y-73969523D01*
X80994285Y-74064761D01*
X80899047Y-74112380D01*
X80708571Y-74112380D01*
X80613333Y-74064761D01*
X80518095Y-73969523D01*
X80470476Y-73779047D01*
X80470476Y-73445714D01*
X80518095Y-73255238D01*
X80613333Y-73160000D01*
X80708571Y-73112380D01*
X81518095Y-73207619D02*
X81565714Y-73160000D01*
X81660952Y-73112380D01*
X81899047Y-73112380D01*
X81994285Y-73160000D01*
X82041904Y-73207619D01*
X82089523Y-73302857D01*
X82089523Y-73398095D01*
X82041904Y-73540952D01*
X81470476Y-74112380D01*
X82089523Y-74112380D01*
X80470476Y-71572380D02*
X80470476Y-70572380D01*
X80899047Y-71286666D02*
X81375238Y-71286666D01*
X80803809Y-71572380D02*
X81137142Y-70572380D01*
X81470476Y-71572380D01*
X81660952Y-70572380D02*
X82232380Y-70572380D01*
X81946666Y-71572380D02*
X81946666Y-70572380D01*
X80803809Y-81637142D02*
X80756190Y-81684761D01*
X80613333Y-81732380D01*
X80518095Y-81732380D01*
X80375238Y-81684761D01*
X80280000Y-81589523D01*
X80232380Y-81494285D01*
X80184761Y-81303809D01*
X80184761Y-81160952D01*
X80232380Y-80970476D01*
X80280000Y-80875238D01*
X80375238Y-80780000D01*
X80518095Y-80732380D01*
X80613333Y-80732380D01*
X80756190Y-80780000D01*
X80803809Y-80827619D01*
X81708571Y-81732380D02*
X81232380Y-81732380D01*
X81232380Y-80732380D01*
X81899047Y-80732380D02*
X82470476Y-80732380D01*
X82184761Y-81732380D02*
X82184761Y-80732380D01*
X79899047Y-79192380D02*
X79899047Y-78192380D01*
X80375238Y-79192380D02*
X80375238Y-78192380D01*
X80946666Y-79192380D01*
X80946666Y-78192380D01*
X81708571Y-78192380D02*
X81708571Y-78906666D01*
X81660952Y-79049523D01*
X81565714Y-79144761D01*
X81422857Y-79192380D01*
X81327619Y-79192380D01*
X82708571Y-79192380D02*
X82137142Y-79192380D01*
X82422857Y-79192380D02*
X82422857Y-78192380D01*
X82327619Y-78335238D01*
X82232380Y-78430476D01*
X82137142Y-78478095D01*
X79899047Y-76652380D02*
X79899047Y-75652380D01*
X80375238Y-76652380D02*
X80375238Y-75652380D01*
X80946666Y-76652380D01*
X80946666Y-75652380D01*
X81708571Y-75652380D02*
X81708571Y-76366666D01*
X81660952Y-76509523D01*
X81565714Y-76604761D01*
X81422857Y-76652380D01*
X81327619Y-76652380D01*
X82137142Y-75747619D02*
X82184761Y-75700000D01*
X82280000Y-75652380D01*
X82518095Y-75652380D01*
X82613333Y-75700000D01*
X82660952Y-75747619D01*
X82708571Y-75842857D01*
X82708571Y-75938095D01*
X82660952Y-76080952D01*
X82089523Y-76652380D01*
X82708571Y-76652380D01*
X79922857Y-69032380D02*
X79922857Y-68032380D01*
X80399047Y-69032380D02*
X80399047Y-68032380D01*
X80637142Y-68032380D01*
X80780000Y-68080000D01*
X80875238Y-68175238D01*
X80922857Y-68270476D01*
X80970476Y-68460952D01*
X80970476Y-68603809D01*
X80922857Y-68794285D01*
X80875238Y-68889523D01*
X80780000Y-68984761D01*
X80637142Y-69032380D01*
X80399047Y-69032380D01*
X81875238Y-69032380D02*
X81399047Y-69032380D01*
X81399047Y-68032380D01*
X82208571Y-68508571D02*
X82541904Y-68508571D01*
X82684761Y-69032380D02*
X82208571Y-69032380D01*
X82208571Y-68032380D01*
X82684761Y-68032380D01*
%TO.C,J3*%
X88927380Y-130143333D02*
X89641666Y-130143333D01*
X89784523Y-130190952D01*
X89879761Y-130286190D01*
X89927380Y-130429047D01*
X89927380Y-130524285D01*
X88927380Y-129762380D02*
X88927380Y-129143333D01*
X89308333Y-129476666D01*
X89308333Y-129333809D01*
X89355952Y-129238571D01*
X89403571Y-129190952D01*
X89498809Y-129143333D01*
X89736904Y-129143333D01*
X89832142Y-129190952D01*
X89879761Y-129238571D01*
X89927380Y-129333809D01*
X89927380Y-129619523D01*
X89879761Y-129714761D01*
X89832142Y-129762380D01*
X77771904Y-155392380D02*
X77200476Y-155392380D01*
X77486190Y-155392380D02*
X77486190Y-154392380D01*
X77390952Y-154535238D01*
X77295714Y-154630476D01*
X77200476Y-154678095D01*
X78152857Y-154487619D02*
X78200476Y-154440000D01*
X78295714Y-154392380D01*
X78533809Y-154392380D01*
X78629047Y-154440000D01*
X78676666Y-154487619D01*
X78724285Y-154582857D01*
X78724285Y-154678095D01*
X78676666Y-154820952D01*
X78105238Y-155392380D01*
X78724285Y-155392380D01*
X79057619Y-154725714D02*
X79295714Y-155392380D01*
X79533809Y-154725714D01*
X79914761Y-155011428D02*
X80676666Y-155011428D01*
X81105238Y-155344761D02*
X81248095Y-155392380D01*
X81486190Y-155392380D01*
X81581428Y-155344761D01*
X81629047Y-155297142D01*
X81676666Y-155201904D01*
X81676666Y-155106666D01*
X81629047Y-155011428D01*
X81581428Y-154963809D01*
X81486190Y-154916190D01*
X81295714Y-154868571D01*
X81200476Y-154820952D01*
X81152857Y-154773333D01*
X81105238Y-154678095D01*
X81105238Y-154582857D01*
X81152857Y-154487619D01*
X81200476Y-154440000D01*
X81295714Y-154392380D01*
X81533809Y-154392380D01*
X81676666Y-154440000D01*
X82010000Y-154392380D02*
X82248095Y-155392380D01*
X82438571Y-154678095D01*
X82629047Y-155392380D01*
X82867142Y-154392380D01*
X79732380Y-152185714D02*
X79970476Y-152852380D01*
X80208571Y-152185714D01*
X80922857Y-152328571D02*
X81065714Y-152376190D01*
X81113333Y-152423809D01*
X81160952Y-152519047D01*
X81160952Y-152661904D01*
X81113333Y-152757142D01*
X81065714Y-152804761D01*
X80970476Y-152852380D01*
X80589523Y-152852380D01*
X80589523Y-151852380D01*
X80922857Y-151852380D01*
X81018095Y-151900000D01*
X81065714Y-151947619D01*
X81113333Y-152042857D01*
X81113333Y-152138095D01*
X81065714Y-152233333D01*
X81018095Y-152280952D01*
X80922857Y-152328571D01*
X80589523Y-152328571D01*
X81541904Y-152566666D02*
X82018095Y-152566666D01*
X81446666Y-152852380D02*
X81780000Y-151852380D01*
X82113333Y-152852380D01*
X82303809Y-151852380D02*
X82875238Y-151852380D01*
X82589523Y-152852380D02*
X82589523Y-151852380D01*
X80518095Y-136660000D02*
X80422857Y-136612380D01*
X80280000Y-136612380D01*
X80137142Y-136660000D01*
X80041904Y-136755238D01*
X79994285Y-136850476D01*
X79946666Y-137040952D01*
X79946666Y-137183809D01*
X79994285Y-137374285D01*
X80041904Y-137469523D01*
X80137142Y-137564761D01*
X80280000Y-137612380D01*
X80375238Y-137612380D01*
X80518095Y-137564761D01*
X80565714Y-137517142D01*
X80565714Y-137183809D01*
X80375238Y-137183809D01*
X80994285Y-137612380D02*
X80994285Y-136612380D01*
X81565714Y-137612380D01*
X81565714Y-136612380D01*
X82041904Y-137612380D02*
X82041904Y-136612380D01*
X82280000Y-136612380D01*
X82422857Y-136660000D01*
X82518095Y-136755238D01*
X82565714Y-136850476D01*
X82613333Y-137040952D01*
X82613333Y-137183809D01*
X82565714Y-137374285D01*
X82518095Y-137469523D01*
X82422857Y-137564761D01*
X82280000Y-137612380D01*
X82041904Y-137612380D01*
X80470476Y-134548571D02*
X80137142Y-134548571D01*
X80137142Y-135072380D02*
X80137142Y-134072380D01*
X80613333Y-134072380D01*
X80946666Y-134786666D02*
X81422857Y-134786666D01*
X80851428Y-135072380D02*
X81184761Y-134072380D01*
X81518095Y-135072380D01*
X81851428Y-135072380D02*
X81851428Y-134072380D01*
X82422857Y-135072380D01*
X82422857Y-134072380D01*
X79660952Y-147105714D02*
X79899047Y-147772380D01*
X80137142Y-147105714D01*
X81089523Y-147772380D02*
X80756190Y-147296190D01*
X80518095Y-147772380D02*
X80518095Y-146772380D01*
X80899047Y-146772380D01*
X80994285Y-146820000D01*
X81041904Y-146867619D01*
X81089523Y-146962857D01*
X81089523Y-147105714D01*
X81041904Y-147200952D01*
X80994285Y-147248571D01*
X80899047Y-147296190D01*
X80518095Y-147296190D01*
X81518095Y-147248571D02*
X81851428Y-147248571D01*
X81994285Y-147772380D02*
X81518095Y-147772380D01*
X81518095Y-146772380D01*
X81994285Y-146772380D01*
X82756190Y-147248571D02*
X82422857Y-147248571D01*
X82422857Y-147772380D02*
X82422857Y-146772380D01*
X82899047Y-146772380D01*
X77890952Y-150312380D02*
X77890952Y-149312380D01*
X78890952Y-149360000D02*
X78795714Y-149312380D01*
X78652857Y-149312380D01*
X78510000Y-149360000D01*
X78414761Y-149455238D01*
X78367142Y-149550476D01*
X78319523Y-149740952D01*
X78319523Y-149883809D01*
X78367142Y-150074285D01*
X78414761Y-150169523D01*
X78510000Y-150264761D01*
X78652857Y-150312380D01*
X78748095Y-150312380D01*
X78890952Y-150264761D01*
X78938571Y-150217142D01*
X78938571Y-149883809D01*
X78748095Y-149883809D01*
X79367142Y-150312380D02*
X79367142Y-149312380D01*
X79938571Y-150312380D01*
X79938571Y-149312380D01*
X80414761Y-149931428D02*
X81176666Y-149931428D01*
X82176666Y-150312380D02*
X81605238Y-150312380D01*
X81890952Y-150312380D02*
X81890952Y-149312380D01*
X81795714Y-149455238D01*
X81700476Y-149550476D01*
X81605238Y-149598095D01*
X80518095Y-139200000D02*
X80422857Y-139152380D01*
X80280000Y-139152380D01*
X80137142Y-139200000D01*
X80041904Y-139295238D01*
X79994285Y-139390476D01*
X79946666Y-139580952D01*
X79946666Y-139723809D01*
X79994285Y-139914285D01*
X80041904Y-140009523D01*
X80137142Y-140104761D01*
X80280000Y-140152380D01*
X80375238Y-140152380D01*
X80518095Y-140104761D01*
X80565714Y-140057142D01*
X80565714Y-139723809D01*
X80375238Y-139723809D01*
X80994285Y-140152380D02*
X80994285Y-139152380D01*
X81565714Y-140152380D01*
X81565714Y-139152380D01*
X82041904Y-140152380D02*
X82041904Y-139152380D01*
X82280000Y-139152380D01*
X82422857Y-139200000D01*
X82518095Y-139295238D01*
X82565714Y-139390476D01*
X82613333Y-139580952D01*
X82613333Y-139723809D01*
X82565714Y-139914285D01*
X82518095Y-140009523D01*
X82422857Y-140104761D01*
X82280000Y-140152380D01*
X82041904Y-140152380D01*
X80518095Y-141740000D02*
X80422857Y-141692380D01*
X80280000Y-141692380D01*
X80137142Y-141740000D01*
X80041904Y-141835238D01*
X79994285Y-141930476D01*
X79946666Y-142120952D01*
X79946666Y-142263809D01*
X79994285Y-142454285D01*
X80041904Y-142549523D01*
X80137142Y-142644761D01*
X80280000Y-142692380D01*
X80375238Y-142692380D01*
X80518095Y-142644761D01*
X80565714Y-142597142D01*
X80565714Y-142263809D01*
X80375238Y-142263809D01*
X80994285Y-142692380D02*
X80994285Y-141692380D01*
X81565714Y-142692380D01*
X81565714Y-141692380D01*
X82041904Y-142692380D02*
X82041904Y-141692380D01*
X82280000Y-141692380D01*
X82422857Y-141740000D01*
X82518095Y-141835238D01*
X82565714Y-141930476D01*
X82613333Y-142120952D01*
X82613333Y-142263809D01*
X82565714Y-142454285D01*
X82518095Y-142549523D01*
X82422857Y-142644761D01*
X82280000Y-142692380D01*
X82041904Y-142692380D01*
X80518095Y-144280000D02*
X80422857Y-144232380D01*
X80280000Y-144232380D01*
X80137142Y-144280000D01*
X80041904Y-144375238D01*
X79994285Y-144470476D01*
X79946666Y-144660952D01*
X79946666Y-144803809D01*
X79994285Y-144994285D01*
X80041904Y-145089523D01*
X80137142Y-145184761D01*
X80280000Y-145232380D01*
X80375238Y-145232380D01*
X80518095Y-145184761D01*
X80565714Y-145137142D01*
X80565714Y-144803809D01*
X80375238Y-144803809D01*
X80994285Y-145232380D02*
X80994285Y-144232380D01*
X81565714Y-145232380D01*
X81565714Y-144232380D01*
X82041904Y-145232380D02*
X82041904Y-144232380D01*
X82280000Y-144232380D01*
X82422857Y-144280000D01*
X82518095Y-144375238D01*
X82565714Y-144470476D01*
X82613333Y-144660952D01*
X82613333Y-144803809D01*
X82565714Y-144994285D01*
X82518095Y-145089523D01*
X82422857Y-145184761D01*
X82280000Y-145232380D01*
X82041904Y-145232380D01*
X77819523Y-132532380D02*
X77343333Y-132532380D01*
X77343333Y-131532380D01*
X78105238Y-132246666D02*
X78581428Y-132246666D01*
X78010000Y-132532380D02*
X78343333Y-131532380D01*
X78676666Y-132532380D01*
X79010000Y-131532380D02*
X79010000Y-132341904D01*
X79057619Y-132437142D01*
X79105238Y-132484761D01*
X79200476Y-132532380D01*
X79390952Y-132532380D01*
X79486190Y-132484761D01*
X79533809Y-132437142D01*
X79581428Y-132341904D01*
X79581428Y-131532380D01*
X80057619Y-132532380D02*
X80057619Y-131532380D01*
X80629047Y-132532380D01*
X80629047Y-131532380D01*
X81676666Y-132437142D02*
X81629047Y-132484761D01*
X81486190Y-132532380D01*
X81390952Y-132532380D01*
X81248095Y-132484761D01*
X81152857Y-132389523D01*
X81105238Y-132294285D01*
X81057619Y-132103809D01*
X81057619Y-131960952D01*
X81105238Y-131770476D01*
X81152857Y-131675238D01*
X81248095Y-131580000D01*
X81390952Y-131532380D01*
X81486190Y-131532380D01*
X81629047Y-131580000D01*
X81676666Y-131627619D01*
X82105238Y-132532380D02*
X82105238Y-131532380D01*
X82105238Y-132008571D02*
X82676666Y-132008571D01*
X82676666Y-132532380D02*
X82676666Y-131532380D01*
%TD*%
M02*
