M48
; DRILL file {KiCad (5.1.6)-1} date 09/19/21 14:54:20
; FORMAT={-:-/ absolute / inch / decimal}
; #@! TF.CreationDate,2021-09-19T14:54:20-05:00
; #@! TF.GenerationSoftware,Kicad,Pcbnew,(5.1.6)-1
; #@! TF.FileFunction,Plated,1,2,PTH
FMAT,2
INCH
T1C0.0394
T2C0.0433
T3C0.1378
%
G90
G05
T1
X3.35Y-5.2
X3.35Y-5.3
X3.35Y-5.4
X3.35Y-5.5
X3.35Y-5.6
X3.35Y-5.7
X3.35Y-5.8
X3.35Y-5.9
X3.35Y-6.0
X3.35Y-6.1
X3.35Y-2.7
X3.35Y-2.8
X3.35Y-2.9
X3.35Y-3.0
X3.35Y-3.1
X3.35Y-3.2
X3.35Y-3.3
X3.35Y-3.4
X3.35Y-3.5
T2
X2.6228Y-2.95
X2.6228Y-3.0878
X2.6228Y-3.2256
X2.6228Y-3.3476
X2.6228Y-3.4657
X2.6228Y-3.5839
X2.6228Y-3.702
X2.6228Y-3.8201
X2.6228Y-3.9382
X2.6228Y-4.0563
X2.6228Y-4.1744
X2.6228Y-4.2965
X2.6228Y-4.4343
X2.6228Y-4.6783
X2.6228Y-4.8004
X2.6228Y-4.9185
X2.6228Y-5.0366
X2.6228Y-5.1547
X2.6228Y-5.2728
X2.6228Y-5.3909
X2.6228Y-5.5091
X2.6228Y-5.6272
X2.6228Y-5.7492
X2.6228Y-5.887
X2.8Y-2.95
X2.8Y-3.0878
X2.8Y-3.2256
X2.8Y-3.3476
X2.8Y-3.4657
X2.8Y-3.5839
X2.8Y-3.702
X2.8Y-3.8201
X2.8Y-3.9382
X2.8Y-4.0563
X2.8Y-4.1744
X2.8Y-4.2965
X2.8Y-4.4343
X2.8Y-4.6783
X2.8Y-4.8004
X2.8Y-4.9185
X2.8Y-5.0366
X2.8Y-5.1547
X2.8Y-5.2728
X2.8Y-5.3909
X2.8Y-5.5091
X2.8Y-5.6272
X2.8Y-5.7492
X2.8Y-5.887
T3
X2.3984Y-2.7512
X2.3984Y-4.5563
X2.3984Y-6.0858
T0
M30
