%TF.GenerationSoftware,KiCad,Pcbnew,(5.1.6)-1*%
%TF.CreationDate,2021-09-19T14:55:01-05:00*%
%TF.ProjectId,BptoMega2,4270746f-4d65-4676-9132-2e6b69636164,rev?*%
%TF.SameCoordinates,Original*%
%TF.FileFunction,Soldermask,Bot*%
%TF.FilePolarity,Negative*%
%FSLAX46Y46*%
G04 Gerber Fmt 4.6, Leading zero omitted, Abs format (unit mm)*
G04 Created by KiCad (PCBNEW (5.1.6)-1) date 2021-09-19 14:55:01*
%MOMM*%
%LPD*%
G01*
G04 APERTURE LIST*
%ADD10C,1.750000*%
%ADD11C,5.350000*%
%ADD12R,1.800000X1.800000*%
%ADD13O,1.800000X1.800000*%
G04 APERTURE END LIST*
D10*
%TO.C,J1*%
X71120000Y-74930000D03*
X71120000Y-78430000D03*
X71120000Y-81930000D03*
X71120000Y-109130000D03*
X71120000Y-112630000D03*
X66620000Y-74930000D03*
X66620000Y-78430000D03*
X66620000Y-81930000D03*
X66620000Y-109130000D03*
X66620000Y-112630000D03*
X71120000Y-118830000D03*
X71120000Y-146030000D03*
X71120000Y-149530000D03*
X66620000Y-118830000D03*
X66620000Y-146030000D03*
X66620000Y-149530000D03*
X71120000Y-85030000D03*
X71120000Y-88030000D03*
X71120000Y-91030000D03*
X71120000Y-94030000D03*
X71120000Y-97030000D03*
X71120000Y-100030000D03*
X71120000Y-103030000D03*
X71120000Y-106030000D03*
X66620000Y-85030000D03*
X66620000Y-88030000D03*
X66620000Y-91030000D03*
X66620000Y-94030000D03*
X66620000Y-97030000D03*
X66620000Y-100030000D03*
X66620000Y-103030000D03*
X66620000Y-106030000D03*
X71120000Y-121930000D03*
X71120000Y-124930000D03*
X71120000Y-127930000D03*
X71120000Y-130930000D03*
X71120000Y-133930000D03*
X71120000Y-136930000D03*
X71120000Y-139930000D03*
X71120000Y-142930000D03*
X66620000Y-121930000D03*
X66620000Y-124930000D03*
X66620000Y-127930000D03*
X66620000Y-130930000D03*
X66620000Y-133930000D03*
X66620000Y-136930000D03*
X66620000Y-139930000D03*
X66620000Y-142930000D03*
D11*
X60920000Y-154580000D03*
X60920000Y-115730000D03*
X60920000Y-69880000D03*
%TD*%
D12*
%TO.C,J2*%
X85090000Y-68580000D03*
D13*
X85090000Y-71120000D03*
X85090000Y-73660000D03*
X85090000Y-76200000D03*
X85090000Y-78740000D03*
X85090000Y-81280000D03*
X85090000Y-83820000D03*
X85090000Y-86360000D03*
X85090000Y-88900000D03*
%TD*%
D12*
%TO.C,J3*%
X85090000Y-132080000D03*
D13*
X85090000Y-134620000D03*
X85090000Y-137160000D03*
X85090000Y-139700000D03*
X85090000Y-142240000D03*
X85090000Y-144780000D03*
X85090000Y-147320000D03*
X85090000Y-149860000D03*
X85090000Y-152400000D03*
X85090000Y-154940000D03*
%TD*%
M02*
